<svg xmlns="http://www.w3.org/2000/svg" xmlns:xlink="http://www.w3.org/1999/xlink" width="500" zoomAndPan="magnify" viewBox="0 0 375 374.999991" height="500" preserveAspectRatio="xMidYMid meet" version="1.0"><defs><g/><clipPath id="a4877325f4"><path d="M 58.667969 203.964844 L 119.417969 203.964844 L 119.417969 264.714844 L 58.667969 264.714844 Z M 58.667969 203.964844 " clip-rule="nonzero"/></clipPath><clipPath id="5d6841a567"><path d="M 283.792969 219.84375 L 325.042969 219.84375 L 325.042969 250.421875 L 283.792969 250.421875 Z M 283.792969 219.84375 " clip-rule="nonzero"/></clipPath><clipPath id="7d571b73ec"><path d="M 77.042969 218.234375 L 101.042969 218.234375 L 101.042969 250.484375 L 77.042969 250.484375 Z M 77.042969 218.234375 " clip-rule="nonzero"/></clipPath></defs><rect x="-37.5" width="450" fill="#ffffff" y="-37.499999" height="449.999989" fill-opacity="1"/><rect x="-37.5" width="450" fill="#ffffff" y="-37.499999" height="449.999989" fill-opacity="1"/><g clip-path="url(#a4877325f4)"><path fill="#898787" d="M 89.03125 264.691406 C 72.296875 264.691406 58.667969 251.078125 58.667969 234.328125 C 58.667969 217.59375 72.296875 203.964844 89.03125 203.964844 C 97.132812 203.964844 104.746094 207.121094 110.492188 212.867188 C 116.238281 218.613281 119.394531 226.226562 119.394531 234.328125 C 119.394531 251.078125 105.78125 264.691406 89.03125 264.691406 Z M 89.03125 205.785156 C 73.289062 205.785156 60.488281 218.589844 60.488281 234.328125 C 60.488281 250.070312 73.289062 262.871094 89.03125 262.871094 C 104.773438 262.871094 117.574219 250.070312 117.574219 234.328125 C 117.574219 226.714844 114.597656 219.546875 109.203125 214.15625 C 103.8125 208.761719 96.644531 205.785156 89.03125 205.785156 Z M 89.03125 205.785156 " fill-opacity="1" fill-rule="nonzero"/></g><path fill="#898787" d="M 89.03125 261.109375 C 74.261719 261.109375 62.25 249.097656 62.25 234.328125 C 62.25 219.558594 74.261719 207.546875 89.03125 207.546875 C 96.171875 207.546875 102.890625 210.339844 107.953125 215.394531 C 113.019531 220.457031 115.800781 227.175781 115.800781 234.316406 C 115.8125 249.097656 103.800781 261.109375 89.03125 261.109375 Z M 89.03125 209.332031 C 75.246094 209.332031 64.035156 220.542969 64.035156 234.328125 C 64.035156 248.113281 75.246094 259.324219 89.03125 259.324219 C 102.816406 259.324219 114.027344 248.113281 114.027344 234.328125 C 114.027344 227.660156 111.425781 221.394531 106.703125 216.667969 C 101.964844 211.933594 95.699219 209.332031 89.03125 209.332031 Z M 89.03125 209.332031 " fill-opacity="1" fill-rule="nonzero"/><g clip-path="url(#5d6841a567)"><path fill="#15569c" d="M 323.222656 236.320312 C 322.460938 237.503906 319.355469 238.71875 318.871094 238.902344 C 318.839844 238.914062 318.8125 238.925781 318.78125 238.941406 C 318.691406 238.984375 318.394531 239.0625 317.964844 238.605469 C 317.585938 238.199219 316.929688 237.175781 316.597656 236.640625 C 316.488281 236.464844 316.566406 236.238281 316.757812 236.164062 L 322.554688 233.957031 C 322.679688 233.910156 322.816406 233.945312 322.90625 234.042969 C 323.222656 234.402344 323.867188 235.320312 323.222656 236.320312 Z M 321.699219 245.023438 C 321.300781 245.136719 320.726562 245.214844 319.921875 245.167969 C 319.636719 245.152344 319.363281 245.042969 319.144531 244.859375 L 317.328125 243.351562 C 317.058594 243.128906 317.105469 242.695312 317.421875 242.539062 C 318.105469 242.191406 319.304688 241.75 320.789062 241.863281 C 321.417969 241.914062 321.96875 242.316406 322.199219 242.90625 C 322.296875 243.15625 322.390625 243.460938 322.453125 243.816406 C 322.546875 244.351562 322.222656 244.875 321.699219 245.023438 Z M 316.28125 245.273438 L 292.855469 245.273438 C 292.625 245.273438 292.5 245.128906 292.660156 245.039062 L 293.714844 244.433594 C 294.914062 243.816406 296.300781 243.761719 296.851562 243.769531 C 297.464844 243.773438 298.082031 243.777344 298.695312 243.777344 L 310.441406 243.777344 C 311.054688 243.777344 311.671875 243.773438 312.285156 243.769531 C 312.835938 243.761719 314.222656 243.816406 315.421875 244.433594 L 316.476562 245.039062 C 316.636719 245.128906 316.511719 245.273438 316.28125 245.273438 Z M 292.539062 236.640625 C 292.207031 237.175781 291.550781 238.199219 291.171875 238.605469 C 290.738281 239.0625 290.445312 238.984375 290.355469 238.941406 C 290.324219 238.925781 290.296875 238.914062 290.265625 238.902344 C 289.78125 238.71875 286.675781 237.503906 285.914062 236.320312 C 285.269531 235.320312 285.914062 234.402344 286.230469 234.042969 C 286.316406 233.945312 286.457031 233.910156 286.582031 233.957031 L 292.378906 236.164062 C 292.570312 236.238281 292.648438 236.464844 292.539062 236.640625 Z M 291.808594 243.351562 L 289.992188 244.859375 C 289.773438 245.042969 289.5 245.152344 289.214844 245.167969 C 288.410156 245.214844 287.835938 245.136719 287.4375 245.023438 C 286.914062 244.875 286.589844 244.351562 286.683594 243.816406 C 286.746094 243.460938 286.839844 243.15625 286.9375 242.90625 C 287.167969 242.316406 287.71875 241.914062 288.347656 241.863281 C 289.832031 241.75 291.03125 242.191406 291.714844 242.539062 C 292.03125 242.695312 292.078125 243.128906 291.808594 243.351562 Z M 315.199219 240.019531 C 314.738281 240.429688 313.984375 240.875 312.792969 241.074219 C 312.792969 241.074219 309.738281 241.617188 304.566406 241.617188 C 299.398438 241.617188 296.34375 241.074219 296.34375 241.074219 C 295.152344 240.875 294.398438 240.429688 293.9375 240.019531 C 293.484375 239.617188 293.386719 238.945312 293.703125 238.429688 L 293.957031 238.019531 C 294.429688 237.253906 295.210938 236.726562 296.101562 236.582031 C 298.011719 236.273438 301.023438 236.25 302.894531 236.273438 C 303.996094 236.285156 305.101562 236.285156 306.203125 236.273438 C 308.070312 236.25 311.113281 236.269531 313.035156 236.582031 C 313.925781 236.726562 314.707031 237.253906 315.179688 238.019531 L 315.433594 238.429688 C 315.75 238.945312 315.652344 239.617188 315.199219 240.019531 Z M 290.675781 227.59375 C 290.875 226.96875 291.527344 225.359375 293.554688 222.519531 C 293.972656 221.933594 294.632812 221.566406 295.347656 221.519531 C 297.207031 221.394531 301.066406 221.167969 304.566406 221.167969 C 308.070312 221.167969 311.929688 221.394531 313.785156 221.519531 C 314.503906 221.566406 315.164062 221.933594 315.582031 222.519531 C 317.609375 225.359375 318.261719 226.96875 318.460938 227.59375 C 318.507812 227.742188 318.398438 227.894531 318.238281 227.890625 L 304.566406 227.679688 L 290.894531 227.890625 C 290.738281 227.894531 290.625 227.742188 290.675781 227.59375 Z M 325.34375 245.699219 L 325.175781 235.835938 C 325.066406 232.9375 321.046875 229.230469 321.046875 229.230469 C 321.457031 229.007812 321.910156 228.878906 322.375 228.859375 C 323.035156 228.832031 323.96875 228.601562 323.742188 227.5 C 323.496094 226.289062 321.636719 225.996094 320.652344 225.929688 C 320.34375 225.910156 320.097656 226.1875 320.160156 226.492188 L 320.503906 228.167969 C 320.503906 228.167969 320.503906 228.167969 320.507812 228.171875 C 320.53125 228.296875 320.359375 228.359375 320.292969 228.25 L 319.988281 227.734375 C 317.558594 223.566406 316.5 222.089844 315.609375 221.328125 C 315.203125 220.980469 314.71875 220.742188 314.199219 220.625 C 310.351562 219.769531 304.566406 219.847656 304.566406 219.847656 C 304.566406 219.847656 298.785156 219.769531 294.9375 220.625 C 294.417969 220.742188 293.933594 220.980469 293.527344 221.328125 C 292.636719 222.089844 291.578125 223.566406 289.148438 227.734375 L 288.84375 228.25 C 288.777344 228.359375 288.605469 228.296875 288.628906 228.171875 C 288.628906 228.167969 288.632812 228.167969 288.632812 228.167969 L 288.976562 226.492188 C 289.039062 226.1875 288.792969 225.910156 288.484375 225.929688 C 287.5 225.996094 285.640625 226.289062 285.394531 227.5 C 285.167969 228.601562 286.101562 228.832031 286.761719 228.859375 C 287.226562 228.878906 287.679688 229.007812 288.089844 229.230469 C 288.089844 229.230469 284.070312 232.9375 283.960938 235.835938 L 283.792969 245.699219 C 283.785156 246.105469 283.949219 246.5 284.238281 246.777344 L 284.238281 247.929688 C 284.238281 249.300781 285.359375 250.425781 286.730469 250.425781 L 291.308594 250.425781 C 292.238281 250.425781 293 249.664062 293 248.730469 L 293 248.019531 L 316.136719 248.019531 L 316.136719 248.730469 C 316.136719 249.664062 316.898438 250.425781 317.828125 250.425781 L 322.40625 250.425781 C 323.777344 250.425781 324.898438 249.300781 324.898438 247.929688 L 324.898438 246.777344 C 325.1875 246.5 325.351562 246.105469 325.34375 245.699219 " fill-opacity="1" fill-rule="nonzero"/></g><g fill="#000000" fill-opacity="1"><g transform="translate(105.150284, 252.244495)"><g><path d="M 10.109375 0.28125 C 8.410156 0.28125 6.894531 -0.0078125 5.5625 -0.59375 C 4.226562 -1.175781 3.175781 -1.972656 2.40625 -2.984375 C 1.644531 -4.003906 1.21875 -5.144531 1.125 -6.40625 L 7.03125 -6.40625 C 7.101562 -5.726562 7.414062 -5.175781 7.96875 -4.75 C 8.53125 -4.332031 9.222656 -4.125 10.046875 -4.125 C 10.796875 -4.125 11.375 -4.269531 11.78125 -4.5625 C 12.1875 -4.851562 12.390625 -5.234375 12.390625 -5.703125 C 12.390625 -6.265625 12.097656 -6.675781 11.515625 -6.9375 C 10.929688 -7.207031 9.988281 -7.507812 8.6875 -7.84375 C 7.28125 -8.164062 6.109375 -8.507812 5.171875 -8.875 C 4.242188 -9.238281 3.441406 -9.8125 2.765625 -10.59375 C 2.085938 -11.375 1.75 -12.425781 1.75 -13.75 C 1.75 -14.875 2.054688 -15.894531 2.671875 -16.8125 C 3.296875 -17.738281 4.207031 -18.46875 5.40625 -19 C 6.601562 -19.539062 8.03125 -19.8125 9.6875 -19.8125 C 12.144531 -19.8125 14.078125 -19.203125 15.484375 -17.984375 C 16.898438 -16.773438 17.710938 -15.164062 17.921875 -13.15625 L 12.390625 -13.15625 C 12.296875 -13.832031 12 -14.367188 11.5 -14.765625 C 11 -15.160156 10.335938 -15.359375 9.515625 -15.359375 C 8.816406 -15.359375 8.28125 -15.222656 7.90625 -14.953125 C 7.53125 -14.691406 7.34375 -14.328125 7.34375 -13.859375 C 7.34375 -13.296875 7.640625 -12.875 8.234375 -12.59375 C 8.835938 -12.320312 9.769531 -12.046875 11.03125 -11.765625 C 12.46875 -11.390625 13.640625 -11.019531 14.546875 -10.65625 C 15.460938 -10.289062 16.265625 -9.707031 16.953125 -8.90625 C 17.640625 -8.101562 18 -7.023438 18.03125 -5.671875 C 18.03125 -4.523438 17.707031 -3.503906 17.0625 -2.609375 C 16.414062 -1.710938 15.492188 -1.003906 14.296875 -0.484375 C 13.097656 0.0234375 11.703125 0.28125 10.109375 0.28125 Z M 10.109375 0.28125 "/></g></g></g><g fill="#000000" fill-opacity="1"><g transform="translate(123.975871, 252.244495)"><g><path d="M 13.0625 -5.078125 L 13.0625 0 L 10.015625 0 C 7.835938 0 6.140625 -0.53125 4.921875 -1.59375 C 3.710938 -2.65625 3.109375 -4.390625 3.109375 -6.796875 L 3.109375 -14.5625 L 0.734375 -14.5625 L 0.734375 -19.53125 L 3.109375 -19.53125 L 3.109375 -24.296875 L 9.09375 -24.296875 L 9.09375 -19.53125 L 13.015625 -19.53125 L 13.015625 -14.5625 L 9.09375 -14.5625 L 9.09375 -6.71875 C 9.09375 -6.132812 9.234375 -5.710938 9.515625 -5.453125 C 9.796875 -5.203125 10.265625 -5.078125 10.921875 -5.078125 Z M 13.0625 -5.078125 "/></g></g></g><g fill="#000000" fill-opacity="1"><g transform="translate(137.482656, 252.244495)"><g><path d="M 0.984375 -9.796875 C 0.984375 -11.804688 1.359375 -13.566406 2.109375 -15.078125 C 2.867188 -16.597656 3.898438 -17.765625 5.203125 -18.578125 C 6.515625 -19.398438 7.976562 -19.8125 9.59375 -19.8125 C 10.96875 -19.8125 12.171875 -19.53125 13.203125 -18.96875 C 14.242188 -18.40625 15.046875 -17.671875 15.609375 -16.765625 L 15.609375 -19.53125 L 21.59375 -19.53125 L 21.59375 0 L 15.609375 0 L 15.609375 -2.765625 C 15.023438 -1.859375 14.210938 -1.125 13.171875 -0.5625 C 12.140625 0 10.9375 0.28125 9.5625 0.28125 C 7.96875 0.28125 6.515625 -0.128906 5.203125 -0.953125 C 3.898438 -1.785156 2.867188 -2.96875 2.109375 -4.5 C 1.359375 -6.03125 0.984375 -7.796875 0.984375 -9.796875 Z M 15.609375 -9.765625 C 15.609375 -11.253906 15.191406 -12.429688 14.359375 -13.296875 C 13.535156 -14.160156 12.53125 -14.59375 11.34375 -14.59375 C 10.15625 -14.59375 9.144531 -14.164062 8.3125 -13.3125 C 7.476562 -12.46875 7.0625 -11.296875 7.0625 -9.796875 C 7.0625 -8.304688 7.476562 -7.125 8.3125 -6.25 C 9.144531 -5.375 10.15625 -4.9375 11.34375 -4.9375 C 12.53125 -4.9375 13.535156 -5.367188 14.359375 -6.234375 C 15.191406 -7.097656 15.609375 -8.273438 15.609375 -9.765625 Z M 15.609375 -9.765625 "/></g></g></g><g fill="#000000" fill-opacity="1"><g transform="translate(160.542294, 252.244495)"><g><path d="M 0.984375 -9.765625 C 0.984375 -11.796875 1.394531 -13.566406 2.21875 -15.078125 C 3.050781 -16.597656 4.207031 -17.765625 5.6875 -18.578125 C 7.164062 -19.398438 8.863281 -19.8125 10.78125 -19.8125 C 13.226562 -19.8125 15.273438 -19.164062 16.921875 -17.875 C 18.566406 -16.59375 19.644531 -14.785156 20.15625 -12.453125 L 13.796875 -12.453125 C 13.253906 -13.953125 12.210938 -14.703125 10.671875 -14.703125 C 9.578125 -14.703125 8.703125 -14.273438 8.046875 -13.421875 C 7.390625 -12.566406 7.0625 -11.347656 7.0625 -9.765625 C 7.0625 -8.179688 7.390625 -6.960938 8.046875 -6.109375 C 8.703125 -5.253906 9.578125 -4.828125 10.671875 -4.828125 C 12.210938 -4.828125 13.253906 -5.570312 13.796875 -7.0625 L 20.15625 -7.0625 C 19.644531 -4.78125 18.5625 -2.984375 16.90625 -1.671875 C 15.25 -0.367188 13.207031 0.28125 10.78125 0.28125 C 8.863281 0.28125 7.164062 -0.125 5.6875 -0.9375 C 4.207031 -1.757812 3.050781 -2.925781 2.21875 -4.4375 C 1.394531 -5.957031 0.984375 -7.734375 0.984375 -9.765625 Z M 0.984375 -9.765625 "/></g></g></g><g fill="#000000" fill-opacity="1"><g transform="translate(181.012511, 252.244495)"><g><path d="M 5.1875 -21.5625 C 4.132812 -21.5625 3.273438 -21.867188 2.609375 -22.484375 C 1.941406 -23.109375 1.609375 -23.875 1.609375 -24.78125 C 1.609375 -25.71875 1.941406 -26.492188 2.609375 -27.109375 C 3.273438 -27.722656 4.132812 -28.03125 5.1875 -28.03125 C 6.207031 -28.03125 7.050781 -27.722656 7.71875 -27.109375 C 8.382812 -26.492188 8.71875 -25.71875 8.71875 -24.78125 C 8.71875 -23.875 8.382812 -23.109375 7.71875 -22.484375 C 7.050781 -21.867188 6.207031 -21.5625 5.1875 -21.5625 Z M 8.15625 -19.53125 L 8.15625 0 L 2.171875 0 L 2.171875 -19.53125 Z M 8.15625 -19.53125 "/></g></g></g><g fill="#000000" fill-opacity="1"><g transform="translate(190.635183, 252.244495)"><g><path d="M 11.0625 0.28125 C 9.144531 0.28125 7.421875 -0.125 5.890625 -0.9375 C 4.367188 -1.757812 3.171875 -2.925781 2.296875 -4.4375 C 1.421875 -5.957031 0.984375 -7.734375 0.984375 -9.765625 C 0.984375 -11.773438 1.425781 -13.539062 2.3125 -15.0625 C 3.195312 -16.59375 4.410156 -17.765625 5.953125 -18.578125 C 7.492188 -19.398438 9.21875 -19.8125 11.125 -19.8125 C 13.039062 -19.8125 14.769531 -19.398438 16.3125 -18.578125 C 17.851562 -17.765625 19.066406 -16.59375 19.953125 -15.0625 C 20.835938 -13.539062 21.28125 -11.773438 21.28125 -9.765625 C 21.28125 -7.753906 20.828125 -5.984375 19.921875 -4.453125 C 19.023438 -2.929688 17.800781 -1.757812 16.25 -0.9375 C 14.707031 -0.125 12.976562 0.28125 11.0625 0.28125 Z M 11.0625 -4.90625 C 12.207031 -4.90625 13.179688 -5.320312 13.984375 -6.15625 C 14.785156 -7 15.1875 -8.203125 15.1875 -9.765625 C 15.1875 -11.328125 14.796875 -12.523438 14.015625 -13.359375 C 13.234375 -14.203125 12.269531 -14.625 11.125 -14.625 C 9.957031 -14.625 8.988281 -14.207031 8.21875 -13.375 C 7.445312 -12.550781 7.0625 -11.347656 7.0625 -9.765625 C 7.0625 -8.203125 7.441406 -7 8.203125 -6.15625 C 8.960938 -5.320312 9.914062 -4.90625 11.0625 -4.90625 Z M 11.0625 -4.90625 "/></g></g></g><g fill="#000000" fill-opacity="1"><g transform="translate(212.225148, 252.244495)"><g><path d="M 14.0625 -19.734375 C 16.351562 -19.734375 18.179688 -18.992188 19.546875 -17.515625 C 20.910156 -16.035156 21.59375 -14 21.59375 -11.40625 L 21.59375 0 L 15.640625 0 L 15.640625 -10.609375 C 15.640625 -11.910156 15.300781 -12.921875 14.625 -13.640625 C 13.945312 -14.367188 13.039062 -14.734375 11.90625 -14.734375 C 10.757812 -14.734375 9.847656 -14.367188 9.171875 -13.640625 C 8.492188 -12.921875 8.15625 -11.910156 8.15625 -10.609375 L 8.15625 0 L 2.171875 0 L 2.171875 -19.53125 L 8.15625 -19.53125 L 8.15625 -16.9375 C 8.757812 -17.800781 9.570312 -18.484375 10.59375 -18.984375 C 11.625 -19.484375 12.78125 -19.734375 14.0625 -19.734375 Z M 14.0625 -19.734375 "/></g></g></g><g fill="#000000" fill-opacity="1"><g transform="translate(235.109817, 252.244495)"><g><path d="M 0.984375 -9.796875 C 0.984375 -11.804688 1.359375 -13.566406 2.109375 -15.078125 C 2.867188 -16.597656 3.898438 -17.765625 5.203125 -18.578125 C 6.515625 -19.398438 7.976562 -19.8125 9.59375 -19.8125 C 10.96875 -19.8125 12.171875 -19.53125 13.203125 -18.96875 C 14.242188 -18.40625 15.046875 -17.671875 15.609375 -16.765625 L 15.609375 -19.53125 L 21.59375 -19.53125 L 21.59375 0 L 15.609375 0 L 15.609375 -2.765625 C 15.023438 -1.859375 14.210938 -1.125 13.171875 -0.5625 C 12.140625 0 10.9375 0.28125 9.5625 0.28125 C 7.96875 0.28125 6.515625 -0.128906 5.203125 -0.953125 C 3.898438 -1.785156 2.867188 -2.96875 2.109375 -4.5 C 1.359375 -6.03125 0.984375 -7.796875 0.984375 -9.796875 Z M 15.609375 -9.765625 C 15.609375 -11.253906 15.191406 -12.429688 14.359375 -13.296875 C 13.535156 -14.160156 12.53125 -14.59375 11.34375 -14.59375 C 10.15625 -14.59375 9.144531 -14.164062 8.3125 -13.3125 C 7.476562 -12.46875 7.0625 -11.296875 7.0625 -9.796875 C 7.0625 -8.304688 7.476562 -7.125 8.3125 -6.25 C 9.144531 -5.375 10.15625 -4.9375 11.34375 -4.9375 C 12.53125 -4.9375 13.535156 -5.367188 14.359375 -6.234375 C 15.191406 -7.097656 15.609375 -8.273438 15.609375 -9.765625 Z M 15.609375 -9.765625 "/></g></g></g><g fill="#000000" fill-opacity="1"><g transform="translate(258.169454, 252.244495)"><g><path d="M 19.921875 -9.5625 L 13.828125 -9.5625 L 13.828125 -3.328125 L 8.15625 -3.328125 L 8.15625 -9.5625 L 2.0625 -9.5625 L 2.0625 -14.90625 L 8.15625 -14.90625 L 8.15625 -21.171875 L 13.828125 -21.171875 L 13.828125 -14.90625 L 19.921875 -14.90625 Z M 19.921875 -9.5625 "/></g></g></g><path fill="#15569c" d="M 35.429688 259.914062 L 349.875 259.914062 C 351.632812 259.914062 353.316406 260.613281 354.558594 261.855469 C 355.800781 263.097656 356.5 264.785156 356.5 266.542969 L 356.5 279.792969 C 356.5 281.550781 355.800781 283.234375 354.558594 284.480469 C 353.316406 285.722656 351.632812 286.417969 349.875 286.417969 L 35.429688 286.417969 C 31.773438 286.417969 28.804688 283.453125 28.804688 279.792969 L 28.804688 266.542969 C 28.804688 262.882812 31.773438 259.914062 35.429688 259.914062 Z M 35.429688 259.914062 " fill-opacity="1" fill-rule="nonzero"/><g fill="#000000" fill-opacity="1"><g transform="translate(37.438508, 276.917473)"><g><path d="M 0.421875 -4.5625 C 0.421875 -5.457031 0.613281 -6.253906 1 -6.953125 C 1.394531 -7.660156 1.9375 -8.210938 2.625 -8.609375 C 3.320312 -9.003906 4.113281 -9.203125 5 -9.203125 C 6.082031 -9.203125 7.003906 -8.914062 7.765625 -8.34375 C 8.535156 -7.769531 9.050781 -6.992188 9.3125 -6.015625 L 6.875 -6.015625 C 6.695312 -6.390625 6.441406 -6.675781 6.109375 -6.875 C 5.773438 -7.070312 5.394531 -7.171875 4.96875 -7.171875 C 4.289062 -7.171875 3.738281 -6.929688 3.3125 -6.453125 C 2.894531 -5.984375 2.6875 -5.351562 2.6875 -4.5625 C 2.6875 -3.769531 2.894531 -3.132812 3.3125 -2.65625 C 3.738281 -2.175781 4.289062 -1.9375 4.96875 -1.9375 C 5.394531 -1.9375 5.773438 -2.035156 6.109375 -2.234375 C 6.441406 -2.429688 6.695312 -2.722656 6.875 -3.109375 L 9.3125 -3.109375 C 9.050781 -2.117188 8.535156 -1.34375 7.765625 -0.78125 C 7.003906 -0.21875 6.082031 0.0625 5 0.0625 C 4.113281 0.0625 3.320312 -0.128906 2.625 -0.515625 C 1.9375 -0.910156 1.394531 -1.457031 1 -2.15625 C 0.613281 -2.863281 0.421875 -3.664062 0.421875 -4.5625 Z M 0.421875 -4.5625 "/></g></g></g><g fill="#000000" fill-opacity="1"><g transform="translate(47.565034, 276.917473)"><g><path d="M 2.984375 -9.09375 L 2.984375 -3.65625 C 2.984375 -3.113281 3.113281 -2.691406 3.375 -2.390625 C 3.644531 -2.097656 4.039062 -1.953125 4.5625 -1.953125 C 5.082031 -1.953125 5.476562 -2.097656 5.75 -2.390625 C 6.03125 -2.691406 6.171875 -3.113281 6.171875 -3.65625 L 6.171875 -9.09375 L 8.375 -9.09375 L 8.375 -3.671875 C 8.375 -2.859375 8.203125 -2.171875 7.859375 -1.609375 C 7.515625 -1.046875 7.050781 -0.617188 6.46875 -0.328125 C 5.882812 -0.046875 5.234375 0.09375 4.515625 0.09375 C 3.804688 0.09375 3.164062 -0.046875 2.59375 -0.328125 C 2.03125 -0.609375 1.582031 -1.03125 1.25 -1.59375 C 0.925781 -2.164062 0.765625 -2.859375 0.765625 -3.671875 L 0.765625 -9.09375 Z M 2.984375 -9.09375 "/></g></g></g><g fill="#000000" fill-opacity="1"><g transform="translate(56.953461, 276.917473)"><g><path d="M 3.015625 -9.09375 L 3.015625 0 L 0.796875 0 L 0.796875 -9.09375 Z M 3.015625 -9.09375 "/></g></g></g><g fill="#000000" fill-opacity="1"><g transform="translate(61.032723, 276.917473)"><g><path d="M 4.203125 -9.09375 C 5.160156 -9.09375 6 -8.898438 6.71875 -8.515625 C 7.4375 -8.140625 7.988281 -7.609375 8.375 -6.921875 C 8.769531 -6.234375 8.96875 -5.441406 8.96875 -4.546875 C 8.96875 -3.660156 8.769531 -2.867188 8.375 -2.171875 C 7.988281 -1.484375 7.4375 -0.945312 6.71875 -0.5625 C 6 -0.1875 5.160156 0 4.203125 0 L 0.796875 0 L 0.796875 -9.09375 Z M 4.0625 -1.921875 C 4.90625 -1.921875 5.554688 -2.148438 6.015625 -2.609375 C 6.484375 -3.066406 6.71875 -3.710938 6.71875 -4.546875 C 6.71875 -5.378906 6.484375 -6.03125 6.015625 -6.5 C 5.554688 -6.96875 4.90625 -7.203125 4.0625 -7.203125 L 3.015625 -7.203125 L 3.015625 -1.921875 Z M 4.0625 -1.921875 "/></g></g></g><g fill="#000000" fill-opacity="1"><g transform="translate(70.706029, 276.917473)"><g><path d="M 6.46875 -1.609375 L 3.0625 -1.609375 L 2.53125 0 L 0.203125 0 L 3.5 -9.09375 L 6.0625 -9.09375 L 9.359375 0 L 7 0 Z M 5.890625 -3.3125 L 4.765625 -6.640625 L 3.65625 -3.3125 Z M 5.890625 -3.3125 "/></g></g></g><g fill="#000000" fill-opacity="1"><g transform="translate(80.508825, 276.917473)"><g><path d="M 8.9375 0 L 6.71875 0 L 3.015625 -5.609375 L 3.015625 0 L 0.796875 0 L 0.796875 -9.09375 L 3.015625 -9.09375 L 6.71875 -3.453125 L 6.71875 -9.09375 L 8.9375 -9.09375 Z M 8.9375 0 "/></g></g></g><g fill="#000000" fill-opacity="1"><g transform="translate(90.505863, 276.917473)"><g><path d="M 4.203125 -9.09375 C 5.160156 -9.09375 6 -8.898438 6.71875 -8.515625 C 7.4375 -8.140625 7.988281 -7.609375 8.375 -6.921875 C 8.769531 -6.234375 8.96875 -5.441406 8.96875 -4.546875 C 8.96875 -3.660156 8.769531 -2.867188 8.375 -2.171875 C 7.988281 -1.484375 7.4375 -0.945312 6.71875 -0.5625 C 6 -0.1875 5.160156 0 4.203125 0 L 0.796875 0 L 0.796875 -9.09375 Z M 4.0625 -1.921875 C 4.90625 -1.921875 5.554688 -2.148438 6.015625 -2.609375 C 6.484375 -3.066406 6.71875 -3.710938 6.71875 -4.546875 C 6.71875 -5.378906 6.484375 -6.03125 6.015625 -6.5 C 5.554688 -6.96875 4.90625 -7.203125 4.0625 -7.203125 L 3.015625 -7.203125 L 3.015625 -1.921875 Z M 4.0625 -1.921875 "/></g></g></g><g fill="#000000" fill-opacity="1"><g transform="translate(100.179169, 276.917473)"><g><path d="M 5.109375 0.09375 C 4.253906 0.09375 3.46875 -0.101562 2.75 -0.5 C 2.039062 -0.894531 1.472656 -1.445312 1.046875 -2.15625 C 0.628906 -2.875 0.421875 -3.679688 0.421875 -4.578125 C 0.421875 -5.460938 0.628906 -6.257812 1.046875 -6.96875 C 1.472656 -7.675781 2.039062 -8.226562 2.75 -8.625 C 3.46875 -9.019531 4.253906 -9.21875 5.109375 -9.21875 C 5.960938 -9.21875 6.742188 -9.019531 7.453125 -8.625 C 8.160156 -8.226562 8.71875 -7.675781 9.125 -6.96875 C 9.539062 -6.257812 9.75 -5.460938 9.75 -4.578125 C 9.75 -3.679688 9.539062 -2.875 9.125 -2.15625 C 8.71875 -1.445312 8.160156 -0.894531 7.453125 -0.5 C 6.742188 -0.101562 5.960938 0.09375 5.109375 0.09375 Z M 5.109375 -1.9375 C 5.828125 -1.9375 6.40625 -2.175781 6.84375 -2.65625 C 7.28125 -3.132812 7.5 -3.773438 7.5 -4.578125 C 7.5 -5.378906 7.28125 -6.019531 6.84375 -6.5 C 6.40625 -6.976562 5.828125 -7.21875 5.109375 -7.21875 C 4.367188 -7.21875 3.78125 -6.976562 3.34375 -6.5 C 2.90625 -6.03125 2.6875 -5.390625 2.6875 -4.578125 C 2.6875 -3.773438 2.90625 -3.132812 3.34375 -2.65625 C 3.78125 -2.175781 4.367188 -1.9375 5.109375 -1.9375 Z M 5.109375 -1.9375 "/></g></g></g><g fill="#000000" fill-opacity="1"><g transform="translate(110.616472, 276.917473)"><g/></g></g><g fill="#000000" fill-opacity="1"><g transform="translate(113.620952, 276.917473)"><g><path d="M 4.203125 -9.09375 C 5.160156 -9.09375 6 -8.898438 6.71875 -8.515625 C 7.4375 -8.140625 7.988281 -7.609375 8.375 -6.921875 C 8.769531 -6.234375 8.96875 -5.441406 8.96875 -4.546875 C 8.96875 -3.660156 8.769531 -2.867188 8.375 -2.171875 C 7.988281 -1.484375 7.4375 -0.945312 6.71875 -0.5625 C 6 -0.1875 5.160156 0 4.203125 0 L 0.796875 0 L 0.796875 -9.09375 Z M 4.0625 -1.921875 C 4.90625 -1.921875 5.554688 -2.148438 6.015625 -2.609375 C 6.484375 -3.066406 6.71875 -3.710938 6.71875 -4.546875 C 6.71875 -5.378906 6.484375 -6.03125 6.015625 -6.5 C 5.554688 -6.96875 4.90625 -7.203125 4.0625 -7.203125 L 3.015625 -7.203125 L 3.015625 -1.921875 Z M 4.0625 -1.921875 "/></g></g></g><g fill="#000000" fill-opacity="1"><g transform="translate(123.294259, 276.917473)"><g><path d="M 5.109375 0.09375 C 4.253906 0.09375 3.46875 -0.101562 2.75 -0.5 C 2.039062 -0.894531 1.472656 -1.445312 1.046875 -2.15625 C 0.628906 -2.875 0.421875 -3.679688 0.421875 -4.578125 C 0.421875 -5.460938 0.628906 -6.257812 1.046875 -6.96875 C 1.472656 -7.675781 2.039062 -8.226562 2.75 -8.625 C 3.46875 -9.019531 4.253906 -9.21875 5.109375 -9.21875 C 5.960938 -9.21875 6.742188 -9.019531 7.453125 -8.625 C 8.160156 -8.226562 8.71875 -7.675781 9.125 -6.96875 C 9.539062 -6.257812 9.75 -5.460938 9.75 -4.578125 C 9.75 -3.679688 9.539062 -2.875 9.125 -2.15625 C 8.71875 -1.445312 8.160156 -0.894531 7.453125 -0.5 C 6.742188 -0.101562 5.960938 0.09375 5.109375 0.09375 Z M 5.109375 -1.9375 C 5.828125 -1.9375 6.40625 -2.175781 6.84375 -2.65625 C 7.28125 -3.132812 7.5 -3.773438 7.5 -4.578125 C 7.5 -5.378906 7.28125 -6.019531 6.84375 -6.5 C 6.40625 -6.976562 5.828125 -7.21875 5.109375 -7.21875 C 4.367188 -7.21875 3.78125 -6.976562 3.34375 -6.5 C 2.90625 -6.03125 2.6875 -5.390625 2.6875 -4.578125 C 2.6875 -3.773438 2.90625 -3.132812 3.34375 -2.65625 C 3.78125 -2.175781 4.367188 -1.9375 5.109375 -1.9375 Z M 5.109375 -1.9375 "/></g></g></g><g fill="#000000" fill-opacity="1"><g transform="translate(133.731562, 276.917473)"><g/></g></g><g fill="#000000" fill-opacity="1"><g transform="translate(136.736036, 276.917473)"><g><path d="M 4.09375 0.09375 C 3.425781 0.09375 2.828125 -0.015625 2.296875 -0.234375 C 1.773438 -0.453125 1.351562 -0.769531 1.03125 -1.1875 C 0.71875 -1.613281 0.554688 -2.125 0.546875 -2.71875 L 2.90625 -2.71875 C 2.9375 -2.382812 3.050781 -2.128906 3.25 -1.953125 C 3.445312 -1.773438 3.707031 -1.6875 4.03125 -1.6875 C 4.351562 -1.6875 4.609375 -1.757812 4.796875 -1.90625 C 4.992188 -2.0625 5.09375 -2.269531 5.09375 -2.53125 C 5.09375 -2.757812 5.015625 -2.945312 4.859375 -3.09375 C 4.710938 -3.238281 4.53125 -3.359375 4.3125 -3.453125 C 4.09375 -3.546875 3.78125 -3.65625 3.375 -3.78125 C 2.78125 -3.957031 2.296875 -4.132812 1.921875 -4.3125 C 1.554688 -4.5 1.238281 -4.769531 0.96875 -5.125 C 0.695312 -5.476562 0.5625 -5.941406 0.5625 -6.515625 C 0.5625 -7.359375 0.867188 -8.019531 1.484375 -8.5 C 2.097656 -8.976562 2.898438 -9.21875 3.890625 -9.21875 C 4.890625 -9.21875 5.695312 -8.976562 6.3125 -8.5 C 6.925781 -8.019531 7.253906 -7.351562 7.296875 -6.5 L 4.890625 -6.5 C 4.878906 -6.789062 4.773438 -7.019531 4.578125 -7.1875 C 4.378906 -7.363281 4.125 -7.453125 3.8125 -7.453125 C 3.539062 -7.453125 3.320312 -7.378906 3.15625 -7.234375 C 3 -7.085938 2.921875 -6.882812 2.921875 -6.625 C 2.921875 -6.320312 3.054688 -6.085938 3.328125 -5.921875 C 3.609375 -5.765625 4.039062 -5.59375 4.625 -5.40625 C 5.207031 -5.207031 5.679688 -5.015625 6.046875 -4.828125 C 6.421875 -4.648438 6.738281 -4.382812 7 -4.03125 C 7.269531 -3.6875 7.40625 -3.242188 7.40625 -2.703125 C 7.40625 -2.191406 7.273438 -1.722656 7.015625 -1.296875 C 6.753906 -0.867188 6.367188 -0.53125 5.859375 -0.28125 C 5.359375 -0.03125 4.769531 0.09375 4.09375 0.09375 Z M 4.09375 0.09375 "/></g></g></g><g fill="#000000" fill-opacity="1"><g transform="translate(144.959028, 276.917473)"><g><path d="M 3.015625 -7.3125 L 3.015625 -5.484375 L 5.984375 -5.484375 L 5.984375 -3.765625 L 3.015625 -3.765625 L 3.015625 -1.78125 L 6.375 -1.78125 L 6.375 0 L 0.796875 0 L 0.796875 -9.09375 L 6.375 -9.09375 L 6.375 -7.3125 Z M 3.015625 -7.3125 "/></g></g></g><g fill="#000000" fill-opacity="1"><g transform="translate(152.223783, 276.917473)"><g><path d="M 2.984375 -9.09375 L 2.984375 -3.65625 C 2.984375 -3.113281 3.113281 -2.691406 3.375 -2.390625 C 3.644531 -2.097656 4.039062 -1.953125 4.5625 -1.953125 C 5.082031 -1.953125 5.476562 -2.097656 5.75 -2.390625 C 6.03125 -2.691406 6.171875 -3.113281 6.171875 -3.65625 L 6.171875 -9.09375 L 8.375 -9.09375 L 8.375 -3.671875 C 8.375 -2.859375 8.203125 -2.171875 7.859375 -1.609375 C 7.515625 -1.046875 7.050781 -0.617188 6.46875 -0.328125 C 5.882812 -0.046875 5.234375 0.09375 4.515625 0.09375 C 3.804688 0.09375 3.164062 -0.046875 2.59375 -0.328125 C 2.03125 -0.609375 1.582031 -1.03125 1.25 -1.59375 C 0.925781 -2.164062 0.765625 -2.859375 0.765625 -3.671875 L 0.765625 -9.09375 Z M 2.984375 -9.09375 "/></g></g></g><g fill="#000000" fill-opacity="1"><g transform="translate(161.612206, 276.917473)"><g/></g></g><g fill="#000000" fill-opacity="1"><g transform="translate(164.61668, 276.917473)"><g><path d="M 9.34375 -9.09375 L 6.109375 0 L 3.34375 0 L 0.109375 -9.09375 L 2.46875 -9.09375 L 4.734375 -2.234375 L 7 -9.09375 Z M 9.34375 -9.09375 "/></g></g></g><g fill="#000000" fill-opacity="1"><g transform="translate(174.328823, 276.917473)"><g><path d="M 3.015625 -7.3125 L 3.015625 -5.484375 L 5.984375 -5.484375 L 5.984375 -3.765625 L 3.015625 -3.765625 L 3.015625 -1.78125 L 6.375 -1.78125 L 6.375 0 L 0.796875 0 L 0.796875 -9.09375 L 6.375 -9.09375 L 6.375 -7.3125 Z M 3.015625 -7.3125 "/></g></g></g><g fill="#000000" fill-opacity="1"><g transform="translate(181.593578, 276.917473)"><g><path d="M 3.015625 -9.09375 L 3.015625 0 L 0.796875 0 L 0.796875 -9.09375 Z M 3.421875 -10.921875 L 0.296875 -9.609375 L 0.296875 -11.140625 L 3.421875 -12.640625 Z M 3.421875 -10.921875 "/></g></g></g><g fill="#000000" fill-opacity="1"><g transform="translate(185.672835, 276.917473)"><g><path d="M 0.421875 -4.5625 C 0.421875 -5.457031 0.613281 -6.253906 1 -6.953125 C 1.394531 -7.660156 1.9375 -8.210938 2.625 -8.609375 C 3.320312 -9.003906 4.113281 -9.203125 5 -9.203125 C 6.082031 -9.203125 7.003906 -8.914062 7.765625 -8.34375 C 8.535156 -7.769531 9.050781 -6.992188 9.3125 -6.015625 L 6.875 -6.015625 C 6.695312 -6.390625 6.441406 -6.675781 6.109375 -6.875 C 5.773438 -7.070312 5.394531 -7.171875 4.96875 -7.171875 C 4.289062 -7.171875 3.738281 -6.929688 3.3125 -6.453125 C 2.894531 -5.984375 2.6875 -5.351562 2.6875 -4.5625 C 2.6875 -3.769531 2.894531 -3.132812 3.3125 -2.65625 C 3.738281 -2.175781 4.289062 -1.9375 4.96875 -1.9375 C 5.394531 -1.9375 5.773438 -2.035156 6.109375 -2.234375 C 6.441406 -2.429688 6.695312 -2.722656 6.875 -3.109375 L 9.3125 -3.109375 C 9.050781 -2.117188 8.535156 -1.34375 7.765625 -0.78125 C 7.003906 -0.21875 6.082031 0.0625 5 0.0625 C 4.113281 0.0625 3.320312 -0.128906 2.625 -0.515625 C 1.9375 -0.910156 1.394531 -1.457031 1 -2.15625 C 0.613281 -2.863281 0.421875 -3.664062 0.421875 -4.5625 Z M 0.421875 -4.5625 "/></g></g></g><g fill="#000000" fill-opacity="1"><g transform="translate(195.799357, 276.917473)"><g><path d="M 2.984375 -9.09375 L 2.984375 -3.65625 C 2.984375 -3.113281 3.113281 -2.691406 3.375 -2.390625 C 3.644531 -2.097656 4.039062 -1.953125 4.5625 -1.953125 C 5.082031 -1.953125 5.476562 -2.097656 5.75 -2.390625 C 6.03125 -2.691406 6.171875 -3.113281 6.171875 -3.65625 L 6.171875 -9.09375 L 8.375 -9.09375 L 8.375 -3.671875 C 8.375 -2.859375 8.203125 -2.171875 7.859375 -1.609375 C 7.515625 -1.046875 7.050781 -0.617188 6.46875 -0.328125 C 5.882812 -0.046875 5.234375 0.09375 4.515625 0.09375 C 3.804688 0.09375 3.164062 -0.046875 2.59375 -0.328125 C 2.03125 -0.609375 1.582031 -1.03125 1.25 -1.59375 C 0.925781 -2.164062 0.765625 -2.859375 0.765625 -3.671875 L 0.765625 -9.09375 Z M 2.984375 -9.09375 "/></g></g></g><g fill="#000000" fill-opacity="1"><g transform="translate(205.18778, 276.917473)"><g><path d="M 3.015625 -1.703125 L 5.921875 -1.703125 L 5.921875 0 L 0.796875 0 L 0.796875 -9.09375 L 3.015625 -9.09375 Z M 3.015625 -1.703125 "/></g></g></g><g fill="#000000" fill-opacity="1"><g transform="translate(211.623788, 276.917473)"><g><path d="M 5.109375 0.09375 C 4.253906 0.09375 3.46875 -0.101562 2.75 -0.5 C 2.039062 -0.894531 1.472656 -1.445312 1.046875 -2.15625 C 0.628906 -2.875 0.421875 -3.679688 0.421875 -4.578125 C 0.421875 -5.460938 0.628906 -6.257812 1.046875 -6.96875 C 1.472656 -7.675781 2.039062 -8.226562 2.75 -8.625 C 3.46875 -9.019531 4.253906 -9.21875 5.109375 -9.21875 C 5.960938 -9.21875 6.742188 -9.019531 7.453125 -8.625 C 8.160156 -8.226562 8.71875 -7.675781 9.125 -6.96875 C 9.539062 -6.257812 9.75 -5.460938 9.75 -4.578125 C 9.75 -3.679688 9.539062 -2.875 9.125 -2.15625 C 8.71875 -1.445312 8.160156 -0.894531 7.453125 -0.5 C 6.742188 -0.101562 5.960938 0.09375 5.109375 0.09375 Z M 5.109375 -1.9375 C 5.828125 -1.9375 6.40625 -2.175781 6.84375 -2.65625 C 7.28125 -3.132812 7.5 -3.773438 7.5 -4.578125 C 7.5 -5.378906 7.28125 -6.019531 6.84375 -6.5 C 6.40625 -6.976562 5.828125 -7.21875 5.109375 -7.21875 C 4.367188 -7.21875 3.78125 -6.976562 3.34375 -6.5 C 2.90625 -6.03125 2.6875 -5.390625 2.6875 -4.578125 C 2.6875 -3.773438 2.90625 -3.132812 3.34375 -2.65625 C 3.78125 -2.175781 4.367188 -1.9375 5.109375 -1.9375 Z M 5.109375 -1.9375 "/></g></g></g><g fill="#000000" fill-opacity="1"><g transform="translate(222.061085, 276.917473)"><g/></g></g><g fill="#000000" fill-opacity="1"><g transform="translate(225.06556, 276.917473)"><g><path d="M 0.421875 -4.5625 C 0.421875 -5.457031 0.613281 -6.253906 1 -6.953125 C 1.394531 -7.660156 1.9375 -8.210938 2.625 -8.609375 C 3.320312 -9.003906 4.113281 -9.203125 5 -9.203125 C 6.082031 -9.203125 7.003906 -8.914062 7.765625 -8.34375 C 8.535156 -7.769531 9.050781 -6.992188 9.3125 -6.015625 L 6.875 -6.015625 C 6.695312 -6.390625 6.441406 -6.675781 6.109375 -6.875 C 5.773438 -7.070312 5.394531 -7.171875 4.96875 -7.171875 C 4.289062 -7.171875 3.738281 -6.929688 3.3125 -6.453125 C 2.894531 -5.984375 2.6875 -5.351562 2.6875 -4.5625 C 2.6875 -3.769531 2.894531 -3.132812 3.3125 -2.65625 C 3.738281 -2.175781 4.289062 -1.9375 4.96875 -1.9375 C 5.394531 -1.9375 5.773438 -2.035156 6.109375 -2.234375 C 6.441406 -2.429688 6.695312 -2.722656 6.875 -3.109375 L 9.3125 -3.109375 C 9.050781 -2.117188 8.535156 -1.34375 7.765625 -0.78125 C 7.003906 -0.21875 6.082031 0.0625 5 0.0625 C 4.113281 0.0625 3.320312 -0.128906 2.625 -0.515625 C 1.9375 -0.910156 1.394531 -1.457031 1 -2.15625 C 0.613281 -2.863281 0.421875 -3.664062 0.421875 -4.5625 Z M 0.421875 -4.5625 "/></g></g></g><g fill="#000000" fill-opacity="1"><g transform="translate(235.192081, 276.917473)"><g><path d="M 5.109375 0.09375 C 4.253906 0.09375 3.46875 -0.101562 2.75 -0.5 C 2.039062 -0.894531 1.472656 -1.445312 1.046875 -2.15625 C 0.628906 -2.875 0.421875 -3.679688 0.421875 -4.578125 C 0.421875 -5.460938 0.628906 -6.257812 1.046875 -6.96875 C 1.472656 -7.675781 2.039062 -8.226562 2.75 -8.625 C 3.46875 -9.019531 4.253906 -9.21875 5.109375 -9.21875 C 5.960938 -9.21875 6.742188 -9.019531 7.453125 -8.625 C 8.160156 -8.226562 8.71875 -7.675781 9.125 -6.96875 C 9.539062 -6.257812 9.75 -5.460938 9.75 -4.578125 C 9.75 -3.679688 9.539062 -2.875 9.125 -2.15625 C 8.71875 -1.445312 8.160156 -0.894531 7.453125 -0.5 C 6.742188 -0.101562 5.960938 0.09375 5.109375 0.09375 Z M 5.109375 -1.9375 C 5.828125 -1.9375 6.40625 -2.175781 6.84375 -2.65625 C 7.28125 -3.132812 7.5 -3.773438 7.5 -4.578125 C 7.5 -5.378906 7.28125 -6.019531 6.84375 -6.5 C 6.40625 -6.976562 5.828125 -7.21875 5.109375 -7.21875 C 4.367188 -7.21875 3.78125 -6.976562 3.34375 -6.5 C 2.90625 -6.03125 2.6875 -5.390625 2.6875 -4.578125 C 2.6875 -3.773438 2.90625 -3.132812 3.34375 -2.65625 C 3.78125 -2.175781 4.367188 -1.9375 5.109375 -1.9375 Z M 5.109375 -1.9375 "/></g></g></g><g fill="#000000" fill-opacity="1"><g transform="translate(245.62939, 276.917473)"><g><path d="M 11.09375 -9.09375 L 11.09375 0 L 8.890625 0 L 8.890625 -5.453125 L 6.859375 0 L 5.0625 0 L 3.015625 -5.46875 L 3.015625 0 L 0.796875 0 L 0.796875 -9.09375 L 3.421875 -9.09375 L 5.96875 -2.796875 L 8.5 -9.09375 Z M 11.09375 -9.09375 "/></g></g></g><g fill="#000000" fill-opacity="1"><g transform="translate(257.775988, 276.917473)"><g/></g></g><g fill="#000000" fill-opacity="1"><g transform="translate(260.780473, 276.917473)"><g><path d="M 4.09375 0.09375 C 3.425781 0.09375 2.828125 -0.015625 2.296875 -0.234375 C 1.773438 -0.453125 1.351562 -0.769531 1.03125 -1.1875 C 0.71875 -1.613281 0.554688 -2.125 0.546875 -2.71875 L 2.90625 -2.71875 C 2.9375 -2.382812 3.050781 -2.128906 3.25 -1.953125 C 3.445312 -1.773438 3.707031 -1.6875 4.03125 -1.6875 C 4.351562 -1.6875 4.609375 -1.757812 4.796875 -1.90625 C 4.992188 -2.0625 5.09375 -2.269531 5.09375 -2.53125 C 5.09375 -2.757812 5.015625 -2.945312 4.859375 -3.09375 C 4.710938 -3.238281 4.53125 -3.359375 4.3125 -3.453125 C 4.09375 -3.546875 3.78125 -3.65625 3.375 -3.78125 C 2.78125 -3.957031 2.296875 -4.132812 1.921875 -4.3125 C 1.554688 -4.5 1.238281 -4.769531 0.96875 -5.125 C 0.695312 -5.476562 0.5625 -5.941406 0.5625 -6.515625 C 0.5625 -7.359375 0.867188 -8.019531 1.484375 -8.5 C 2.097656 -8.976562 2.898438 -9.21875 3.890625 -9.21875 C 4.890625 -9.21875 5.695312 -8.976562 6.3125 -8.5 C 6.925781 -8.019531 7.253906 -7.351562 7.296875 -6.5 L 4.890625 -6.5 C 4.878906 -6.789062 4.773438 -7.019531 4.578125 -7.1875 C 4.378906 -7.363281 4.125 -7.453125 3.8125 -7.453125 C 3.539062 -7.453125 3.320312 -7.378906 3.15625 -7.234375 C 3 -7.085938 2.921875 -6.882812 2.921875 -6.625 C 2.921875 -6.320312 3.054688 -6.085938 3.328125 -5.921875 C 3.609375 -5.765625 4.039062 -5.59375 4.625 -5.40625 C 5.207031 -5.207031 5.679688 -5.015625 6.046875 -4.828125 C 6.421875 -4.648438 6.738281 -4.382812 7 -4.03125 C 7.269531 -3.6875 7.40625 -3.242188 7.40625 -2.703125 C 7.40625 -2.191406 7.273438 -1.722656 7.015625 -1.296875 C 6.753906 -0.867188 6.367188 -0.53125 5.859375 -0.28125 C 5.359375 -0.03125 4.769531 0.09375 4.09375 0.09375 Z M 4.09375 0.09375 "/></g></g></g><g fill="#000000" fill-opacity="1"><g transform="translate(269.003465, 276.917473)"><g><path d="M 3.015625 -7.3125 L 3.015625 -5.484375 L 5.984375 -5.484375 L 5.984375 -3.765625 L 3.015625 -3.765625 L 3.015625 -1.78125 L 6.375 -1.78125 L 6.375 0 L 0.796875 0 L 0.796875 -9.09375 L 6.375 -9.09375 L 6.375 -7.3125 Z M 3.015625 -7.3125 "/></g></g></g><g fill="#000000" fill-opacity="1"><g transform="translate(276.26822, 276.917473)"><g><path d="M 6.84375 -6.21875 C 6.675781 -6.519531 6.4375 -6.75 6.125 -6.90625 C 5.820312 -7.070312 5.460938 -7.15625 5.046875 -7.15625 C 4.335938 -7.15625 3.765625 -6.914062 3.328125 -6.4375 C 2.898438 -5.96875 2.6875 -5.34375 2.6875 -4.5625 C 2.6875 -3.71875 2.910156 -3.0625 3.359375 -2.59375 C 3.816406 -2.125 4.441406 -1.890625 5.234375 -1.890625 C 5.773438 -1.890625 6.234375 -2.023438 6.609375 -2.296875 C 6.984375 -2.578125 7.257812 -2.976562 7.4375 -3.5 L 4.625 -3.5 L 4.625 -5.125 L 9.4375 -5.125 L 9.4375 -3.0625 C 9.28125 -2.507812 9.003906 -1.992188 8.609375 -1.515625 C 8.210938 -1.046875 7.710938 -0.664062 7.109375 -0.375 C 6.503906 -0.0820312 5.820312 0.0625 5.0625 0.0625 C 4.164062 0.0625 3.363281 -0.128906 2.65625 -0.515625 C 1.957031 -0.910156 1.410156 -1.457031 1.015625 -2.15625 C 0.617188 -2.863281 0.421875 -3.664062 0.421875 -4.5625 C 0.421875 -5.457031 0.617188 -6.253906 1.015625 -6.953125 C 1.410156 -7.660156 1.957031 -8.210938 2.65625 -8.609375 C 3.351562 -9.003906 4.148438 -9.203125 5.046875 -9.203125 C 6.140625 -9.203125 7.054688 -8.9375 7.796875 -8.40625 C 8.546875 -7.875 9.039062 -7.144531 9.28125 -6.21875 Z M 6.84375 -6.21875 "/></g></g></g><g fill="#000000" fill-opacity="1"><g transform="translate(286.394752, 276.917473)"><g><path d="M 2.984375 -9.09375 L 2.984375 -3.65625 C 2.984375 -3.113281 3.113281 -2.691406 3.375 -2.390625 C 3.644531 -2.097656 4.039062 -1.953125 4.5625 -1.953125 C 5.082031 -1.953125 5.476562 -2.097656 5.75 -2.390625 C 6.03125 -2.691406 6.171875 -3.113281 6.171875 -3.65625 L 6.171875 -9.09375 L 8.375 -9.09375 L 8.375 -3.671875 C 8.375 -2.859375 8.203125 -2.171875 7.859375 -1.609375 C 7.515625 -1.046875 7.050781 -0.617188 6.46875 -0.328125 C 5.882812 -0.046875 5.234375 0.09375 4.515625 0.09375 C 3.804688 0.09375 3.164062 -0.046875 2.59375 -0.328125 C 2.03125 -0.609375 1.582031 -1.03125 1.25 -1.59375 C 0.925781 -2.164062 0.765625 -2.859375 0.765625 -3.671875 L 0.765625 -9.09375 Z M 2.984375 -9.09375 "/></g></g></g><g fill="#000000" fill-opacity="1"><g transform="translate(295.783187, 276.917473)"><g><path d="M 5.4375 0 L 3.546875 -3.4375 L 3.015625 -3.4375 L 3.015625 0 L 0.796875 0 L 0.796875 -9.09375 L 4.515625 -9.09375 C 5.234375 -9.09375 5.84375 -8.96875 6.34375 -8.71875 C 6.851562 -8.46875 7.234375 -8.125 7.484375 -7.6875 C 7.734375 -7.25 7.859375 -6.765625 7.859375 -6.234375 C 7.859375 -5.628906 7.6875 -5.085938 7.34375 -4.609375 C 7.007812 -4.140625 6.507812 -3.800781 5.84375 -3.59375 L 7.9375 0 Z M 3.015625 -5 L 4.390625 -5 C 4.796875 -5 5.097656 -5.097656 5.296875 -5.296875 C 5.503906 -5.492188 5.609375 -5.773438 5.609375 -6.140625 C 5.609375 -6.484375 5.503906 -6.753906 5.296875 -6.953125 C 5.097656 -7.148438 4.796875 -7.25 4.390625 -7.25 L 3.015625 -7.25 Z M 3.015625 -5 "/></g></g></g><g fill="#000000" fill-opacity="1"><g transform="translate(304.485297, 276.917473)"><g><path d="M 6.46875 -1.609375 L 3.0625 -1.609375 L 2.53125 0 L 0.203125 0 L 3.5 -9.09375 L 6.0625 -9.09375 L 9.359375 0 L 7 0 Z M 5.890625 -3.3125 L 4.765625 -6.640625 L 3.65625 -3.3125 Z M 5.890625 -3.3125 "/></g></g></g><g fill="#000000" fill-opacity="1"><g transform="translate(314.288099, 276.917473)"><g><path d="M 8.9375 0 L 6.71875 0 L 3.015625 -5.609375 L 3.015625 0 L 0.796875 0 L 0.796875 -9.09375 L 3.015625 -9.09375 L 6.71875 -3.453125 L 6.71875 -9.09375 L 8.9375 -9.09375 Z M 8.9375 0 "/></g></g></g><g fill="#000000" fill-opacity="1"><g transform="translate(324.285131, 276.917473)"><g><path d="M 4.96875 -1.9375 C 5.394531 -1.9375 5.773438 -2.035156 6.109375 -2.234375 C 6.441406 -2.429688 6.695312 -2.722656 6.875 -3.109375 L 9.3125 -3.109375 C 9.082031 -2.234375 8.648438 -1.519531 8.015625 -0.96875 C 7.378906 -0.425781 6.609375 -0.09375 5.703125 0.03125 L 5.703125 0.53125 C 6.148438 0.53125 6.539062 0.648438 6.875 0.890625 C 7.21875 1.140625 7.390625 1.507812 7.390625 2 C 7.390625 2.5 7.210938 2.875 6.859375 3.125 C 6.503906 3.382812 6.078125 3.515625 5.578125 3.515625 L 3.59375 3.515625 L 3.59375 2.296875 L 5.28125 2.296875 C 5.457031 2.296875 5.585938 2.269531 5.671875 2.21875 C 5.753906 2.164062 5.796875 2.078125 5.796875 1.953125 C 5.796875 1.835938 5.753906 1.753906 5.671875 1.703125 C 5.585938 1.648438 5.457031 1.625 5.28125 1.625 L 4.359375 1.625 L 4.359375 0.03125 C 3.585938 -0.0625 2.898438 -0.3125 2.296875 -0.71875 C 1.703125 -1.125 1.238281 -1.660156 0.90625 -2.328125 C 0.582031 -2.992188 0.421875 -3.738281 0.421875 -4.5625 C 0.421875 -5.457031 0.613281 -6.253906 1 -6.953125 C 1.394531 -7.660156 1.9375 -8.210938 2.625 -8.609375 C 3.320312 -9.003906 4.113281 -9.203125 5 -9.203125 C 6.082031 -9.203125 7.003906 -8.914062 7.765625 -8.34375 C 8.535156 -7.769531 9.050781 -6.992188 9.3125 -6.015625 L 6.875 -6.015625 C 6.695312 -6.390625 6.441406 -6.675781 6.109375 -6.875 C 5.773438 -7.070312 5.394531 -7.171875 4.96875 -7.171875 C 4.289062 -7.171875 3.738281 -6.929688 3.3125 -6.453125 C 2.894531 -5.984375 2.6875 -5.351562 2.6875 -4.5625 C 2.6875 -3.769531 2.894531 -3.132812 3.3125 -2.65625 C 3.738281 -2.175781 4.289062 -1.9375 4.96875 -1.9375 Z M 4.96875 -1.9375 "/></g></g></g><g fill="#000000" fill-opacity="1"><g transform="translate(334.411664, 276.917473)"><g><path d="M 6.46875 -1.609375 L 3.0625 -1.609375 L 2.53125 0 L 0.203125 0 L 3.5 -9.09375 L 6.0625 -9.09375 L 9.359375 0 L 7 0 Z M 5.890625 -3.3125 L 4.765625 -6.640625 L 3.65625 -3.3125 Z M 5.890625 -3.3125 "/></g></g></g><g fill="#000000" fill-opacity="1"><g transform="translate(344.214466, 276.917473)"><g><path d="M 1.84375 0.109375 C 1.445312 0.109375 1.125 -0.00390625 0.875 -0.234375 C 0.632812 -0.460938 0.515625 -0.75 0.515625 -1.09375 C 0.515625 -1.4375 0.632812 -1.722656 0.875 -1.953125 C 1.125 -2.191406 1.445312 -2.3125 1.84375 -2.3125 C 2.21875 -2.3125 2.523438 -2.191406 2.765625 -1.953125 C 3.015625 -1.722656 3.140625 -1.4375 3.140625 -1.09375 C 3.140625 -0.75 3.015625 -0.460938 2.765625 -0.234375 C 2.523438 -0.00390625 2.21875 0.109375 1.84375 0.109375 Z M 1.84375 0.109375 "/></g></g></g><g clip-path="url(#7d571b73ec)"><path fill="#241c1c" d="M 101.019531 224.128906 L 101.019531 218.242188 L 77.042969 218.242188 L 77.042969 250.421875 L 101.019531 250.421875 L 101.019531 244.53125 L 82.933594 244.53125 L 82.933594 237.273438 L 101.019531 237.273438 L 101.019531 231.386719 L 82.933594 231.386719 L 82.933594 224.128906 Z M 101.019531 224.128906 " fill-opacity="1" fill-rule="nonzero"/></g></svg>